<svg width="59" height="59" viewBox="0 0 59 59" fill="none" xmlns="http://www.w3.org/2000/svg">
<g clip-path="url(#clip0_277_3736)">
<path d="M8.00073 25.1708C8.00073 22.0936 8.00073 20.555 8.68006 19.4179C9.08731 18.7362 9.65732 18.1662 10.339 17.7589C11.4761 17.0796 13.0147 17.0796 16.0919 17.0796H17.6237C17.8161 17.0796 17.9123 17.0796 18.0032 17.0762C19.4532 17.0212 20.8005 16.3132 21.6683 15.1502C21.7227 15.0773 21.7773 14.9981 21.8864 14.8396V14.8396C21.9956 14.6811 22.0502 14.6019 22.1046 14.529C22.9724 13.366 24.3197 12.6581 25.7697 12.6031C25.8606 12.5996 25.9568 12.5996 26.1492 12.5996H33.0522C33.2447 12.5996 33.3409 12.5996 33.4318 12.6031C34.8818 12.6581 36.2291 13.366 37.0969 14.529C37.1513 14.6019 37.2059 14.6811 37.315 14.8396V14.8396C37.4242 14.9981 37.4787 15.0773 37.5332 15.1502C38.401 16.3132 39.7482 17.0212 41.1982 17.0762C41.2892 17.0796 41.3854 17.0796 41.5778 17.0796H43.1096C46.1868 17.0796 47.7253 17.0796 48.8625 17.7589C49.5441 18.1662 50.1142 18.7362 50.5214 19.4179C51.2007 20.555 51.2007 22.0936 51.2007 25.1708V36.5996C51.2007 41.1251 51.2007 43.3878 49.7948 44.7937C48.389 46.1996 46.1262 46.1996 41.6007 46.1996H17.6007C13.0753 46.1996 10.8125 46.1996 9.40662 44.7937C8.00073 43.3878 8.00073 41.1251 8.00073 36.5996V25.1708Z" stroke="#717171" stroke-width="2.76" stroke-linecap="round"/>
<path d="M37.1437 30.7714C37.1437 34.9372 33.7666 38.3142 29.6008 38.3142C25.435 38.3142 22.058 34.9372 22.058 30.7714C22.058 26.6056 25.435 23.2285 29.6008 23.2285C33.7666 23.2285 37.1437 26.6056 37.1437 30.7714Z" stroke="#717171" stroke-width="2.76" stroke-linecap="round"/>
<path d="M40.5725 24.5999C40.5725 23.8425 41.1865 23.2285 41.9439 23.2285C42.7014 23.2285 43.3154 23.8425 43.3154 24.5999C43.3154 25.3574 42.7014 25.9714 41.9439 25.9714C41.1865 25.9714 40.5725 25.3574 40.5725 24.5999Z" fill="#717171"/>
</g>
<defs>
<clipPath id="clip0_277_3736">
<rect width="57.6" height="57.6" fill="white" transform="translate(0.800781 0.599609)"/>
</clipPath>
</defs>
</svg>
