<svg width="162" height="154" viewBox="0 0 162 154" fill="none" xmlns="http://www.w3.org/2000/svg">
<path fill-rule="evenodd" clip-rule="evenodd" d="M139.255 86.5133C145.286 86.5133 148.494 79.3946 144.498 74.8763L80.378 2.36304C77.592 -0.787675 72.6762 -0.787682 69.8902 2.36303L5.76976 74.8763C1.77444 79.3946 4.98231 86.5133 11.0137 86.5133H11.5656C15.4316 86.5133 18.5656 89.6473 18.5656 93.5133V114.981C18.5656 118.847 21.6997 121.981 25.5657 121.981H124.566C128.432 121.981 131.566 118.847 131.566 114.981V93.5133C131.566 89.6473 134.7 86.5133 138.566 86.5133H139.255Z" fill="#4F4F4F"/>
<g filter="url(#filter0_b_761_3818)">
<mask id="path-2-inside-1_761_3818" fill="white">
<path fill-rule="evenodd" clip-rule="evenodd" d="M66.4317 18.6879C68.4217 16.4374 71.933 16.4374 73.923 18.6879L139.091 92.3854C141.944 95.6128 139.653 100.698 135.345 100.698H129C126.239 100.698 124 102.936 124 105.698V134C124 136.761 121.761 139 119 139H86.3733C83.6118 139 81.3733 136.761 81.3733 134V117.644C81.3733 111.46 76.3603 106.447 70.1765 106.447C63.9926 106.447 58.9797 111.46 58.9797 117.644V134C58.9797 136.761 56.7411 139 53.9797 139H21C18.2386 139 16 136.761 16 134V105.698C16 102.936 13.7614 100.698 11 100.698H5.00976C0.701644 100.698 -1.58968 95.6127 1.26411 92.3854L66.4317 18.6879Z"/>
</mask>
<path fill-rule="evenodd" clip-rule="evenodd" d="M66.4317 18.6879C68.4217 16.4374 71.933 16.4374 73.923 18.6879L139.091 92.3854C141.944 95.6128 139.653 100.698 135.345 100.698H129C126.239 100.698 124 102.936 124 105.698V134C124 136.761 121.761 139 119 139H86.3733C83.6118 139 81.3733 136.761 81.3733 134V117.644C81.3733 111.46 76.3603 106.447 70.1765 106.447C63.9926 106.447 58.9797 111.46 58.9797 117.644V134C58.9797 136.761 56.7411 139 53.9797 139H21C18.2386 139 16 136.761 16 134V105.698C16 102.936 13.7614 100.698 11 100.698H5.00976C0.701644 100.698 -1.58968 95.6127 1.26411 92.3854L66.4317 18.6879Z" fill="url(#paint0_linear_761_3818)"/>
<path d="M66.4317 18.6879L65.308 17.6942L66.4317 18.6879ZM139.091 92.3854L137.967 93.3791L139.091 92.3854ZM140.214 91.3918L75.0467 17.6942L72.7993 19.6815L137.967 93.3791L140.214 91.3918ZM129 102.198H135.345V99.1975H129V102.198ZM125.5 134V105.698H122.5V134H125.5ZM86.3733 140.5H119V137.5H86.3733V140.5ZM79.8733 117.644V134H82.8733V117.644H79.8733ZM70.1765 107.947C75.5319 107.947 79.8733 112.289 79.8733 117.644H82.8733C82.8733 110.632 77.1887 104.947 70.1765 104.947V107.947ZM60.4797 117.644C60.4797 112.289 64.8211 107.947 70.1765 107.947V104.947C63.1642 104.947 57.4797 110.632 57.4797 117.644H60.4797ZM60.4797 134V117.644H57.4797V134H60.4797ZM21 140.5H53.9797V137.5H21V140.5ZM14.5 105.698V134H17.5V105.698H14.5ZM5.00976 102.198H11V99.1975H5.00976V102.198ZM65.308 17.6942L0.140421 91.3918L2.38781 93.379L67.5554 19.6815L65.308 17.6942ZM17.5 105.698C17.5 102.108 14.5898 99.1975 11 99.1975V102.198C12.933 102.198 14.5 103.765 14.5 105.698H17.5ZM21 137.5C19.067 137.5 17.5 135.933 17.5 134H14.5C14.5 137.59 17.4101 140.5 21 140.5V137.5ZM57.4797 134C57.4797 135.933 55.9127 137.5 53.9797 137.5V140.5C57.5695 140.5 60.4797 137.59 60.4797 134H57.4797ZM86.3733 137.5C84.4403 137.5 82.8733 135.933 82.8733 134H79.8733C79.8733 137.59 82.7834 140.5 86.3733 140.5V137.5ZM122.5 134C122.5 135.933 120.933 137.5 119 137.5V140.5C122.59 140.5 125.5 137.59 125.5 134H122.5ZM129 99.1975C125.41 99.1975 122.5 102.108 122.5 105.698H125.5C125.5 103.765 127.067 102.198 129 102.198V99.1975ZM75.0467 17.6942C72.4597 14.7686 67.8951 14.7686 65.308 17.6942L67.5554 19.6815C68.9484 18.1062 71.4063 18.1062 72.7993 19.6815L75.0467 17.6942ZM5.00976 99.1975C1.99408 99.1975 0.390149 95.6382 2.38781 93.379L0.140421 91.3918C-3.56951 95.5873 -0.590794 102.198 5.00976 102.198V99.1975ZM137.967 93.3791C139.965 95.6382 138.361 99.1975 135.345 99.1975V102.198C140.946 102.198 143.924 95.5873 140.214 91.3918L137.967 93.3791Z" fill="url(#paint1_linear_761_3818)" mask="url(#path-2-inside-1_761_3818)"/>
</g>
<circle cx="130.952" cy="122.952" r="30.9524" fill="#212429"/>
<path d="M116.621 125.694L124.381 133.455L143.781 114.054" stroke="#BFFA00" stroke-width="5.95238" stroke-linecap="round" stroke-linejoin="round"/>
<defs>
<filter id="filter0_b_761_3818" x="-5" y="12" width="150.355" height="132" filterUnits="userSpaceOnUse" color-interpolation-filters="sRGB">
<feFlood flood-opacity="0" result="BackgroundImageFix"/>
<feGaussianBlur in="BackgroundImageFix" stdDeviation="2.5"/>
<feComposite in2="SourceAlpha" operator="in" result="effect1_backgroundBlur_761_3818"/>
<feBlend mode="normal" in="SourceGraphic" in2="effect1_backgroundBlur_761_3818" result="shape"/>
</filter>
<linearGradient id="paint0_linear_761_3818" x1="32.5" y1="143.5" x2="59.5" y2="2" gradientUnits="userSpaceOnUse">
<stop stop-color="#EBEBEB"/>
<stop offset="1" stop-color="white" stop-opacity="0.13"/>
</linearGradient>
<linearGradient id="paint1_linear_761_3818" x1="55.5" y1="122" x2="55.5" y2="34.5" gradientUnits="userSpaceOnUse">
<stop offset="0.369797" stop-color="#C0C0C0"/>
<stop offset="1" stop-color="white"/>
</linearGradient>
</defs>
</svg>
