<svg width="19" height="22" viewBox="0 0 19 22" fill="none" xmlns="http://www.w3.org/2000/svg">
<path d="M1 16.8146H18H1Z" fill="#BFFA00"/>
<path d="M16.1111 16.8146V12.9885V16.8146Z" fill="#BFFA00"/>
<path d="M16.1111 12.9885C16.6121 12.9885 17.0925 12.7869 17.4468 12.4282C17.801 12.0694 18 11.5828 18 11.0754V9.16241C18 8.65504 17.801 8.16845 17.4468 7.80968C17.0925 7.45092 16.6121 7.24936 16.1111 7.24936C15.6101 7.24936 15.1297 7.45092 14.7755 7.80968C14.4212 8.16845 14.2222 8.65504 14.2222 9.16241V11.0754C14.2222 11.5828 14.4212 12.0694 14.7755 12.4282C15.1297 12.7869 15.6101 12.9885 16.1111 12.9885Z" fill="#BFFA00"/>
<path d="M11.3889 16.8146V3.42328C11.3889 2.66222 11.0904 1.93234 10.559 1.39419C10.0277 0.856039 9.307 0.553711 8.55556 0.553711H4.77778C4.02633 0.553711 3.30566 0.856039 2.77431 1.39419C2.24296 1.93234 1.94444 2.66222 1.94444 3.42328V16.8146" fill="#BFFA00"/>
<path d="M6.66667 12.9885V16.8146V12.9885Z" fill="#BFFA00"/>
<path d="M5.72222 9.16241H7.61111H5.72222Z" fill="#BFFA00"/>
<path d="M5.72222 5.33632H7.61111H5.72222Z" fill="#BFFA00"/>
<path d="M1 16.8146H18M16.1111 16.8146V12.9885M16.1111 12.9885C16.6121 12.9885 17.0925 12.7869 17.4468 12.4282C17.801 12.0694 18 11.5828 18 11.0755V9.16241C18 8.65504 17.801 8.16845 17.4468 7.80968C17.0925 7.45092 16.6121 7.24936 16.1111 7.24936C15.6101 7.24936 15.1297 7.45092 14.7755 7.80968C14.4212 8.16845 14.2222 8.65504 14.2222 9.16241V11.0755C14.2222 11.5828 14.4212 12.0694 14.7755 12.4282C15.1297 12.7869 15.6101 12.9885 16.1111 12.9885ZM11.3889 16.8146V3.42328C11.3889 2.66222 11.0904 1.93234 10.559 1.39419C10.0277 0.856039 9.307 0.553711 8.55556 0.553711H4.77778C4.02633 0.553711 3.30566 0.856039 2.77431 1.39419C2.24296 1.93234 1.94444 2.66222 1.94444 3.42328V16.8146M6.66667 12.9885V16.8146M5.72222 9.16241H7.61111M5.72222 5.33632H7.61111" stroke="#BFFA00" stroke-width="1.1087" stroke-linecap="round" stroke-linejoin="round"/>
<path d="M1.73877 2.7711C1.73877 1.54647 2.73153 0.553711 3.95616 0.553711H9.13007C10.3547 0.553711 11.3475 1.54647 11.3475 2.7711V16.8146H1.73877V2.7711Z" fill="#BFFA00"/>
<rect x="14.3037" y="7.20557" width="3.69565" height="5.91304" rx="1.84783" fill="#BFFA00"/>
<path d="M3.95654 4.24951H9.13046" stroke="#212429" stroke-width="1.47826" stroke-linecap="round"/>
<path d="M3.95654 7.20557H9.13046" stroke="#212429" stroke-width="1.47826" stroke-linecap="round"/>
<path d="M6.9126 20.5103L6.9126 13.1189" stroke="#212429" stroke-width="1.47826" stroke-linecap="round"/>
</svg>
