<svg width="18" height="20" viewBox="0 0 18 20" fill="none" xmlns="http://www.w3.org/2000/svg">
<path d="M1 18.6H17M1.88889 18.6V3.07059C1.88889 2.52143 2.07619 1.99477 2.40959 1.60646C2.74299 1.21815 3.19517 1 3.66667 1H14.3333C14.8048 1 15.257 1.21815 15.5904 1.60646C15.9238 1.99477 16.1111 2.52143 16.1111 3.07059V18.6M6.33333 18.6V10.3176C6.33333 9.49392 6.61428 8.70392 7.11438 8.12146C7.61448 7.53899 8.29276 7.21177 9 7.21177C9.70724 7.21177 10.3855 7.53899 10.8856 8.12146C11.3857 8.70392 11.6667 9.49392 11.6667 10.3176V18.6" stroke="black" stroke-width="1.2" stroke-linecap="round" stroke-linejoin="round"/>
</svg>
