<svg width="23" height="23" viewBox="0 0 23 23" fill="none" xmlns="http://www.w3.org/2000/svg">
<path d="M3.71104 11.4001H1.3999L11.8 1L22.2001 11.4001H19.889" fill="#BFFA00"/>
<path d="M3.71104 11.4001V19.4891C3.71104 20.102 3.95453 20.6899 4.38795 21.1233C4.82137 21.5567 5.40922 21.8002 6.02217 21.8002H17.5778C18.1908 21.8002 18.7786 21.5567 19.212 21.1233C19.6455 20.6899 19.889 20.102 19.889 19.4891V11.4001" fill="#BFFA00"/>
<path d="M9.48887 11.4001H14.1111V16.0224H9.48887V11.4001Z" fill="#BFFA00"/>
<path d="M3.71104 11.4001H1.3999L11.8 1L22.2001 11.4001H19.889V19.4891C19.889 20.102 19.6455 20.6899 19.2121 21.1233C18.7786 21.5567 18.1908 21.8002 17.5778 21.8002H6.02217C5.40922 21.8002 4.82137 21.5567 4.38795 21.1233C3.95453 20.6899 3.71104 20.102 3.71104 19.4891V11.4001ZM9.48887 11.4001H14.1111V16.0224H9.48887V11.4001Z" stroke="#212429" stroke-width="1.4182" stroke-linecap="round" stroke-linejoin="round"/>
</svg>
