<svg width="18" height="21" viewBox="0 0 18 21" fill="none" xmlns="http://www.w3.org/2000/svg">
<path d="M1 19.4528H17.2297H1Z" fill="#BFFA00"/>
<path d="M1.90165 19.4528V3.70041C1.90165 3.14337 2.09164 2.60915 2.42982 2.21526C2.76801 1.82138 3.22668 1.6001 3.70495 1.6001H14.5247C15.003 1.6001 15.4617 1.82138 15.7999 2.21526C16.138 2.60915 16.328 3.14337 16.328 3.70041V19.4528" fill="#BFFA00"/>
<path d="M6.4099 19.4528V11.0515C6.4099 10.2159 6.69488 9.41461 7.20216 8.82379C7.70943 8.23296 8.39745 7.90104 9.11484 7.90104C9.83224 7.90104 10.5203 8.23296 11.0275 8.82379C11.5348 9.41461 11.8198 10.2159 11.8198 11.0515V19.4528" fill="#BFFA00"/>
<path d="M1 19.4528H17.2297M1.90165 19.4528V3.70041C1.90165 3.14337 2.09164 2.60915 2.42982 2.21526C2.76801 1.82138 3.22668 1.6001 3.70495 1.6001H14.5247C15.003 1.6001 15.4617 1.82138 15.7999 2.21526C16.138 2.60915 16.328 3.14337 16.328 3.70041V19.4528M6.4099 19.4528V11.0515C6.4099 10.2159 6.69488 9.41461 7.20216 8.82379C7.70943 8.23296 8.39745 7.90104 9.11484 7.90104C9.83224 7.90104 10.5203 8.23296 11.0275 8.82379C11.5348 9.41461 11.8198 10.2159 11.8198 11.0515V19.4528" stroke="#BFFA00" stroke-width="1.21723" stroke-linecap="round" stroke-linejoin="round"/>
<path d="M6.68018 10.5258C6.68018 9.18125 7.77012 8.09131 9.11463 8.09131C10.4591 8.09131 11.5491 9.18125 11.5491 10.5258V18.6406H6.68018V10.5258Z" fill="#212429"/>
</svg>
