<svg width="20" height="20" viewBox="0 0 20 20" fill="none" xmlns="http://www.w3.org/2000/svg">
<path d="M1 18.6H19.4M17.3556 18.6V14.4588M17.3556 14.4588C17.8978 14.4588 18.4178 14.2407 18.8012 13.8524C19.1846 13.4641 19.4 12.9374 19.4 12.3882V10.3176C19.4 9.76849 19.1846 9.24183 18.8012 8.85352C18.4178 8.46521 17.8978 8.24706 17.3556 8.24706C16.8133 8.24706 16.2933 8.46521 15.9099 8.85352C15.5265 9.24183 15.3111 9.76849 15.3111 10.3176V12.3882C15.3111 12.9374 15.5265 13.4641 15.9099 13.8524C16.2933 14.2407 16.8133 14.4588 17.3556 14.4588ZM12.2444 18.6V4.10588C12.2444 3.28215 11.9214 2.49216 11.3462 1.90969C10.7711 1.32723 9.99111 1 9.17778 1H5.08889C4.27556 1 3.49554 1.32723 2.92043 1.90969C2.34532 2.49216 2.02222 3.28215 2.02222 4.10588V18.6M7.13333 14.4588V18.6M6.11111 10.3176H8.15556M6.11111 6.17647H8.15556" stroke="black" stroke-width="1.2" stroke-linecap="round" stroke-linejoin="round"/>
</svg>
