<svg width="20" height="20" viewBox="0 0 20 20" fill="none" xmlns="http://www.w3.org/2000/svg">
<path d="M1 18.6H18.6H1Z" fill="white" fill-opacity="0.1"/>
<path d="M6.86667 5.88889H7.84444H6.86667Z" fill="white" fill-opacity="0.1"/>
<path d="M6.86667 9.8H7.84444H6.86667Z" fill="white" fill-opacity="0.1"/>
<path d="M6.86667 13.7111H7.84444H6.86667Z" fill="white" fill-opacity="0.1"/>
<path d="M11.7556 5.88889H12.7333H11.7556Z" fill="white" fill-opacity="0.1"/>
<path d="M11.7556 9.8H12.7333H11.7556Z" fill="white" fill-opacity="0.1"/>
<path d="M11.7556 13.7111H12.7333H11.7556Z" fill="white" fill-opacity="0.1"/>
<path d="M2.95556 18.6V2.95556C2.95556 2.43691 3.16159 1.93951 3.52832 1.57277C3.89506 1.20603 4.39247 1 4.91111 1H14.6889C15.2075 1 15.7049 1.20603 16.0717 1.57277C16.4384 1.93951 16.6444 2.43691 16.6444 2.95556V18.6" fill="white" fill-opacity="0.1"/>
<path d="M1 18.6H18.6M6.86667 5.88889H7.84444M6.86667 9.8H7.84444M6.86667 13.7111H7.84444M11.7556 5.88889H12.7333M11.7556 9.8H12.7333M11.7556 13.7111H12.7333M2.95556 18.6V2.95556C2.95556 2.43691 3.16159 1.93951 3.52832 1.57277C3.89506 1.20603 4.39247 1 4.91111 1H14.6889C15.2075 1 15.7049 1.20603 16.0717 1.57277C16.4384 1.93951 16.6444 2.43691 16.6444 2.95556V18.6" stroke="black" stroke-width="1.2" stroke-linecap="round" stroke-linejoin="round"/>
</svg>
