<svg width="428" height="239" viewBox="0 0 428 239" fill="none" xmlns="http://www.w3.org/2000/svg">
<rect y="-5" width="428" height="244" fill="#212429"/>
<mask id="mask0_177_7390" style="mask-type:alpha" maskUnits="userSpaceOnUse" x="0" y="-2" width="428" height="241">
<rect y="-1.41162" width="428" height="240.412" fill="#4E00CE"/>
</mask>
<g mask="url(#mask0_177_7390)">
<g filter="url(#filter0_f_177_7390)">
<path d="M348 -204.603C348 62.4141 267.391 64.0178 164.856 109.664C53.9383 159.042 -133.075 128.344 -157.58 -204.603C-174.066 -428.603 -44.4018 -613.369 95.2101 -613.369C234.822 -613.369 348 -430.358 348 -204.603Z" fill="#656565"/>
</g>
<g filter="url(#filter1_f_177_7390)">
<path d="M766 143.517C766 350.681 671 354.482 591.5 389.897C505.5 428.207 374 606.438 374 143.517C374 -31.6337 461.752 -173.622 570 -173.622C678.248 -173.622 766 -31.6337 766 143.517Z" fill="#656565" fill-opacity="0.4"/>
</g>
</g>
<defs>
<filter id="filter0_f_177_7390" x="-287" y="-741.369" width="763" height="997.696" filterUnits="userSpaceOnUse" color-interpolation-filters="sRGB">
<feFlood flood-opacity="0" result="BackgroundImageFix"/>
<feBlend mode="normal" in="SourceGraphic" in2="BackgroundImageFix" result="shape"/>
<feGaussianBlur stdDeviation="64" result="effect1_foregroundBlur_177_7390"/>
</filter>
<filter id="filter1_f_177_7390" x="262" y="-285.622" width="616" height="853.192" filterUnits="userSpaceOnUse" color-interpolation-filters="sRGB">
<feFlood flood-opacity="0" result="BackgroundImageFix"/>
<feBlend mode="normal" in="SourceGraphic" in2="BackgroundImageFix" result="shape"/>
<feGaussianBlur stdDeviation="56" result="effect1_foregroundBlur_177_7390"/>
</filter>
</defs>
</svg>
