<svg width="15" height="15" viewBox="0 0 15 15" fill="none" xmlns="http://www.w3.org/2000/svg">
<g opacity="0.3">
<path d="M3.4999 11.8323H2.95318C2.03244 11.8323 1.57207 11.8323 1.28604 11.5463C1 11.2602 1 10.7999 1 9.87913L1.00001 2.95318C1.00001 2.03244 1.00001 1.57207 1.28604 1.28604C1.57208 1 2.03245 1 2.95318 1H12.0463C12.967 1 13.4274 1 13.7134 1.28604C13.9995 1.57207 13.9995 2.03244 13.9995 2.95318V9.87913C13.9995 10.7999 13.9995 11.2602 13.7134 11.5463C13.4274 11.8323 12.967 11.8323 12.0463 11.8323H11.4996" stroke="white" stroke-width="1.29586" stroke-linecap="round"/>
<path d="M6.20714 11.5335C6.64561 10.9002 6.86485 10.5835 7.13988 10.4746C7.37083 10.3832 7.62795 10.3832 7.8589 10.4746C8.13394 10.5835 8.35317 10.9002 8.79165 11.5335V11.5335C9.35031 12.3404 9.62965 12.7439 9.61029 13.0795C9.59412 13.36 9.45793 13.62 9.23652 13.7929C8.97156 13.9999 8.48083 13.9999 7.49939 13.9999V13.9999C6.51794 13.9999 6.02722 13.9999 5.76225 13.7929C5.54085 13.62 5.40466 13.36 5.38849 13.0795C5.36913 12.7439 5.64847 12.3404 6.20714 11.5335V11.5335Z" stroke="white" stroke-width="1.29586"/>
</g>
</svg>
