<svg width="24" height="24" viewBox="0 0 24 24" fill="none" xmlns="http://www.w3.org/2000/svg">
<path d="M1 23H23Z" fill="white" fill-opacity="0.1"/>
<path d="M8.33333 7.11111H9.55556Z" fill="white" fill-opacity="0.1"/>
<path d="M8.33333 12H9.55556Z" fill="white" fill-opacity="0.1"/>
<path d="M8.33333 16.8889H9.55556Z" fill="white" fill-opacity="0.1"/>
<path d="M14.4444 7.11111H15.6667Z" fill="white" fill-opacity="0.1"/>
<path d="M14.4444 12H15.6667Z" fill="white" fill-opacity="0.1"/>
<path d="M14.4444 16.8889H15.6667Z" fill="white" fill-opacity="0.1"/>
<path d="M3.44444 23V3.44444C3.44444 2.79614 3.70198 2.17438 4.16041 1.71596C4.61883 1.25754 5.24058 1 5.88889 1H18.1111C18.7594 1 19.3812 1.25754 19.8396 1.71596C20.298 2.17438 20.5556 2.79614 20.5556 3.44444V23" fill="white" fill-opacity="0.1"/>
<path d="M1 23H23M8.33333 7.11111H9.55556M8.33333 12H9.55556M8.33333 16.8889H9.55556M14.4444 7.11111H15.6667M14.4444 12H15.6667M14.4444 16.8889H15.6667M3.44444 23V3.44444C3.44444 2.79614 3.70198 2.17438 4.16041 1.71596C4.61883 1.25754 5.24058 1 5.88889 1H18.1111C18.7594 1 19.3812 1.25754 19.8396 1.71596C20.298 2.17438 20.5556 2.79614 20.5556 3.44444V23" stroke="black" stroke-width="1.5" stroke-linecap="round" stroke-linejoin="round"/>
</svg>
