<svg width="22" height="24" viewBox="0 0 22 24" fill="none" xmlns="http://www.w3.org/2000/svg">
<path d="M1 23H21M2.11111 23V3.58824C2.11111 2.90179 2.34524 2.24346 2.76198 1.75808C3.17873 1.27269 3.74396 1 4.33333 1H17.6667C18.256 1 18.8213 1.27269 19.238 1.75808C19.6548 2.24346 19.8889 2.90179 19.8889 3.58824V23M7.66667 23V12.6471C7.66667 11.6174 8.01786 10.6299 8.64298 9.90182C9.2681 9.17374 10.1159 8.76471 11 8.76471C11.8841 8.76471 12.7319 9.17374 13.357 9.90182C13.9821 10.6299 14.3333 11.6174 14.3333 12.6471V23" stroke="black" stroke-width="1.5" stroke-linecap="round" stroke-linejoin="round"/>
</svg>
