<svg width="25" height="24" viewBox="0 0 25 24" fill="none" xmlns="http://www.w3.org/2000/svg">
<path d="M1 23H24M21.4444 23V17.8235M21.4444 17.8235C22.1222 17.8235 22.7722 17.5508 23.2515 17.0655C23.7308 16.5801 24 15.9217 24 15.2353V12.6471C24 11.9606 23.7308 11.3023 23.2515 10.8169C22.7722 10.3315 22.1222 10.0588 21.4444 10.0588C20.7667 10.0588 20.1167 10.3315 19.6374 10.8169C19.1581 11.3023 18.8889 11.9606 18.8889 12.6471V15.2353C18.8889 15.9217 19.1581 16.5801 19.6374 17.0655C20.1167 17.5508 20.7667 17.8235 21.4444 17.8235ZM15.0556 23V4.88235C15.0556 3.85269 14.6517 2.8652 13.9328 2.13712C13.2139 1.40903 12.2389 1 11.2222 1H6.11111C5.09445 1 4.11942 1.40903 3.40054 2.13712C2.68165 2.8652 2.27778 3.85269 2.27778 4.88235V23M8.66667 17.8235V23M7.38889 12.6471H9.94444M7.38889 7.47059H9.94444" stroke="white" stroke-width="1.5" stroke-linecap="round" stroke-linejoin="round"/>
</svg>
