<svg width="22" height="21" viewBox="0 0 22 21" fill="none" xmlns="http://www.w3.org/2000/svg">
<path d="M10.2821 0.459437C10.5752 -0.136434 11.4248 -0.136433 11.7179 0.459438L14.3334 5.77698C14.45 6.01393 14.6759 6.1781 14.9373 6.21572L20.8028 7.06006C21.4601 7.15468 21.7226 7.96263 21.2465 8.42551L16.9975 12.5563C16.8081 12.7403 16.7218 13.006 16.7668 13.2662L17.7763 19.1055C17.8895 19.7599 17.2022 20.2592 16.6148 19.9494L11.3732 17.1848C11.1397 17.0617 10.8603 17.0617 10.6268 17.1848L5.38517 19.9494C4.79781 20.2592 4.11053 19.7599 4.22365 19.1055L5.23319 13.2662C5.27818 13.006 5.19187 12.7403 5.00253 12.5563L0.753498 8.42551C0.277362 7.96263 0.539883 7.15468 1.19716 7.06006L7.0627 6.21572C7.32407 6.1781 7.55003 6.01393 7.66658 5.77698L10.2821 0.459437Z" fill="#BFFA00"/>
</svg>
