<svg width="96" height="97" viewBox="0 0 96 97" fill="none" xmlns="http://www.w3.org/2000/svg">
<path d="M14.7704 24.4341H2.80353C1.25545 24.4341 0.000488281 25.689 0.000488281 27.2371V39.204C0.000488281 40.7521 1.25545 42.007 2.80353 42.007H14.7704C16.3185 42.007 17.5734 40.7521 17.5734 39.204V27.2371C17.5734 25.689 16.3185 24.4341 14.7704 24.4341Z" fill="#BFFA00"/>
<path d="M14.7704 61.1938H2.80353C1.25545 61.1938 0.000488281 62.4488 0.000488281 63.9969V75.9637C0.000488281 77.5118 1.25545 78.7668 2.80353 78.7668H14.7704C16.3185 78.7668 17.5734 77.5118 17.5734 75.9637V63.9969C17.5734 62.4488 16.3185 61.1938 14.7704 61.1938Z" fill="#BFFA00"/>
<path d="M61.1773 96.0719H51.6361C38.5912 96.0719 28.0259 85.5066 28.0259 72.4616V2.81672C28.0259 1.25348 29.2657 0.0136719 30.8289 0.0136719H42.4723C44.0356 0.0136719 45.2754 1.25348 45.2754 2.81672V72.4616C45.2754 75.9654 48.1323 78.8224 51.6361 78.8224H61.1773C71.2036 78.8224 78.8041 70.8445 78.8041 60.2252C78.8041 49.606 71.2575 41.6281 61.1773 41.6281H56.811C55.2478 41.6281 54.008 40.3883 54.008 38.8251V27.1817C54.008 25.6184 55.2478 24.3786 56.811 24.3786H61.1773C80.6908 24.3786 95.9997 40.1188 95.9997 60.2252C95.9997 80.3317 80.6908 96.0719 61.1773 96.0719Z" fill="#BFFA00"/>
</svg>
