<svg width="164" height="137" viewBox="0 0 164 137" fill="none" xmlns="http://www.w3.org/2000/svg">
<g opacity="0.3">
<circle cx="142.448" cy="53.9872" r="9.98718" fill="#212429"/>
<rect x="72.5386" y="22.4102" width="44.1538" height="113.538" rx="2.10256" fill="#212429"/>
<rect x="74.6411" y="17.1538" width="39.9487" height="8.41026" rx="2.10256" fill="#212429"/>
<rect x="124" y="54" width="36" height="8" rx="2.10256" fill="#212429"/>
<rect x="36.7949" y="46.5898" width="50.4615" height="8.41026" rx="2.10256" fill="#212429"/>
<path d="M95 18L95 2" stroke="#212429" stroke-width="3.15385" stroke-linecap="round"/>
<rect x="76.7437" y="100.97" width="5.86175" height="11.7235" fill="#D7DBDE"/>
<rect x="76.7437" y="77.5225" width="5.86175" height="11.7235" fill="#D7DBDE"/>
<rect x="76.7437" y="55.541" width="5.86175" height="11.7235" fill="#D7DBDE"/>
<rect x="76.7437" y="35.0254" width="5.86175" height="11.7235" fill="#D7DBDE"/>
<rect x="99.8716" y="77.5225" width="5.86175" height="11.7235" fill="#D7DBDE"/>
<rect x="99.8716" y="55.541" width="5.86175" height="11.7235" fill="#D7DBDE"/>
<rect x="99.8716" y="35.0254" width="5.86175" height="11.7235" fill="#D7DBDE"/>
<rect x="84.0718" y="77.5225" width="5.86175" height="11.7235" fill="#D7DBDE"/>
<rect x="84.0718" y="55.541" width="5.86175" height="11.7235" fill="#D7DBDE"/>
<rect x="84.0718" y="35.0254" width="5.86175" height="11.7235" fill="#D7DBDE"/>
<rect x="107.2" y="77.5225" width="5.86175" height="11.7235" fill="#D7DBDE"/>
<rect x="107.2" y="55.541" width="5.86175" height="11.7235" fill="#D7DBDE"/>
<rect x="107.2" y="35.0254" width="5.86175" height="11.7235" fill="#D7DBDE"/>
<rect x="120.897" y="58.1533" width="43.1026" height="78.8462" rx="2.10256" fill="#212429"/>
<rect x="41" y="50.7949" width="43.1026" height="85.1538" rx="2.10256" fill="#212429"/>
<rect x="127.205" y="65.5127" width="30.4872" height="4.20513" rx="2.10256" fill="#D9D9D9"/>
<rect x="127.205" y="74.9746" width="30.4872" height="4.20513" rx="2.10256" fill="#D9D9D9"/>
<rect x="127.205" y="84.4355" width="30.4872" height="4.20513" rx="2.10256" fill="#D9D9D9"/>
<rect x="127.205" y="93.8975" width="30.4872" height="4.20513" rx="2.10256" fill="#D9D9D9"/>
<rect x="127.205" y="103.359" width="30.4872" height="4.20513" rx="2.10256" fill="#D9D9D9"/>
<circle cx="49.9358" cy="59.7307" r="2.62821" fill="#D9D9D9"/>
<rect x="47.3076" y="59.5762" width="5.25641" height="4.63801" fill="#D9D9D9"/>
<circle cx="49.9358" cy="73.3977" r="2.62821" fill="#D9D9D9"/>
<rect x="47.3076" y="73.2422" width="5.25641" height="4.63801" fill="#D9D9D9"/>
<circle cx="49.9358" cy="87.0638" r="2.62821" fill="#D9D9D9"/>
<rect x="47.3076" y="86.9092" width="5.25641" height="4.63801" fill="#D9D9D9"/>
<circle cx="49.9358" cy="101.782" r="2.62821" fill="#D9D9D9"/>
<rect x="47.3076" y="101.627" width="5.25641" height="4.63801" fill="#D9D9D9"/>
<circle cx="62.5511" cy="59.7307" r="2.62821" fill="#D9D9D9"/>
<rect x="59.9229" y="59.5762" width="5.25641" height="4.63801" fill="#D9D9D9"/>
<circle cx="62.5511" cy="73.3977" r="2.62821" fill="#D9D9D9"/>
<rect x="59.9229" y="73.2422" width="5.25641" height="4.63801" fill="#D9D9D9"/>
<circle cx="62.5511" cy="87.0638" r="2.62821" fill="#D9D9D9"/>
<rect x="59.9229" y="86.9092" width="5.25641" height="4.63801" fill="#D9D9D9"/>
<circle cx="62.5511" cy="101.782" r="2.62821" fill="#D9D9D9"/>
<rect x="59.9229" y="101.627" width="5.25641" height="4.63801" fill="#D9D9D9"/>
<circle cx="75.1668" cy="59.7307" r="2.62821" fill="#D9D9D9"/>
<rect x="72.5386" y="59.5762" width="5.25641" height="4.63801" fill="#D9D9D9"/>
<circle cx="75.1668" cy="73.3977" r="2.62821" fill="#D9D9D9"/>
<rect x="72.5386" y="73.2422" width="5.25641" height="4.63801" fill="#D9D9D9"/>
<circle cx="75.1668" cy="87.0638" r="2.62821" fill="#D9D9D9"/>
<rect x="72.5386" y="86.9092" width="5.25641" height="4.63801" fill="#D9D9D9"/>
<circle cx="75.1668" cy="101.782" r="2.62821" fill="#D9D9D9"/>
<rect x="72.5386" y="101.627" width="5.25641" height="4.63801" fill="#D9D9D9"/>
<rect y="86.5381" width="45.2051" height="49.4103" rx="2.10256" fill="#212429"/>
<rect x="5.25635" y="102.308" width="6.30769" height="26.2821" fill="#D9D9D9"/>
<rect x="14.7178" y="102.308" width="6.30769" height="26.2821" fill="#D9D9D9"/>
<rect x="24.1797" y="102.308" width="6.30769" height="26.2821" fill="#D9D9D9"/>
<rect x="33.6411" y="102.308" width="6.30769" height="26.2821" fill="#D9D9D9"/>
</g>
</svg>
