<svg width="13" height="19" viewBox="0 0 13 19" fill="none" xmlns="http://www.w3.org/2000/svg">
<path fill-rule="evenodd" clip-rule="evenodd" d="M6.69891 18.4889L11.9094 9.48213C11.9544 9.39291 11.9994 9.30575 12.0439 9.21941C12.4603 8.41249 12.8394 7.67782 12.8393 6.01649C12.8393 4.86126 11.677 0.240361 6.79549 0.00927559C1.91393 -0.22181 0.20002 3.92893 0.0256747 5.3136C-0.0518103 5.9297 0.00769995 7.72612 0.751556 9.01997C1.47473 10.2779 4.74653 15.7141 6.42311 18.4923C6.48619 18.5968 6.63777 18.5946 6.69891 18.4889ZM6.41943 9.0945C7.89671 9.0945 9.09428 7.89693 9.09428 6.41965C9.09428 4.94237 7.89671 3.74479 6.41943 3.74479C4.94215 3.74479 3.74458 4.94237 3.74458 6.41965C3.74458 7.89693 4.94215 9.0945 6.41943 9.0945Z" fill="#3E3E3E"/>
</svg>
