<svg width="29" height="28" viewBox="0 0 29 28" fill="none" xmlns="http://www.w3.org/2000/svg">
<path d="M28.2443 4.95965C28.2303 4.73616 28.1417 4.52382 27.9926 4.35667C27.8436 4.18952 27.6428 4.07723 27.4224 4.03778C22.0455 3.07403 19.783 2.32028 14.9274 0.135276C14.4424 -0.045349 14.1417 -0.042224 13.6774 0.135276C8.82175 2.32278 6.55925 3.07278 1.18237 4.03778C0.961941 4.07723 0.76113 4.18952 0.612111 4.35667C0.463092 4.52382 0.374489 4.73616 0.360496 4.95965C0.119871 8.7784 0.631746 12.3347 1.883 15.5315C2.90613 18.1384 4.42188 20.5237 6.34737 22.5572C9.13925 25.5215 12.2349 27.2522 13.8311 27.9072C14.1338 28.0306 14.4728 28.0306 14.7755 27.9072C16.463 27.2247 19.4436 25.5434 22.2574 22.5559C24.1827 20.5228 25.6985 18.1379 26.7218 15.5315C27.973 12.3353 28.4849 8.7784 28.2443 4.95965Z" fill="#BFFA00"/>
</svg>
