<svg width="36" height="36" viewBox="0 0 36 36" fill="none" xmlns="http://www.w3.org/2000/svg">
<path d="M18.3921 7.1199C18.2874 7.01976 18.1481 6.96387 18.0033 6.96387C17.8584 6.96387 17.7191 7.01976 17.6145 7.1199L4.66992 19.4858C4.61495 19.5383 4.57121 19.6015 4.54136 19.6715C4.51151 19.7415 4.49616 19.8168 4.49625 19.8929L4.49414 31.4986C4.49414 32.0954 4.73119 32.6677 5.15315 33.0896C5.57511 33.5116 6.1474 33.7486 6.74414 33.7486H13.5012C13.7995 33.7486 14.0857 33.6301 14.2967 33.4191C14.5076 33.2082 14.6262 32.922 14.6262 32.6236V23.0611C14.6262 22.912 14.6854 22.7689 14.7909 22.6634C14.8964 22.5579 15.0395 22.4986 15.1887 22.4986H20.8137C20.9629 22.4986 21.1059 22.5579 21.2114 22.6634C21.3169 22.7689 21.3762 22.912 21.3762 23.0611V32.6236C21.3762 32.922 21.4947 33.2082 21.7057 33.4191C21.9167 33.6301 22.2028 33.7486 22.5012 33.7486H29.2554C29.8521 33.7486 30.4244 33.5116 30.8464 33.0896C31.2683 32.6677 31.5054 32.0954 31.5054 31.4986V19.8929C31.5055 19.8168 31.4901 19.7415 31.4603 19.6715C31.4304 19.6015 31.3867 19.5383 31.3317 19.4858L18.3921 7.1199Z" fill="#B3B3B3"/>
<path d="M34.5167 17.1673L29.2573 12.1357V4.50049C29.2573 4.20212 29.1388 3.91597 28.9278 3.70499C28.7168 3.49401 28.4306 3.37549 28.1323 3.37549H24.7573C24.4589 3.37549 24.1728 3.49401 23.9618 3.70499C23.7508 3.91597 23.6323 4.20212 23.6323 4.50049V6.75049L19.5598 2.85658C19.1787 2.47127 18.612 2.25049 17.9995 2.25049C17.3892 2.25049 16.8239 2.47127 16.4428 2.85729L1.48735 17.1659C1.05001 17.5878 0.995163 18.2817 1.39313 18.7388C1.49307 18.8541 1.61543 18.948 1.75278 19.0145C1.89013 19.0811 2.03958 19.119 2.19205 19.126C2.34452 19.133 2.49681 19.1088 2.63966 19.0551C2.78251 19.0013 2.91293 18.9191 3.02298 18.8133L17.6128 4.87174C17.7175 4.7716 17.8568 4.71571 18.0017 4.71571C18.1465 4.71571 18.2858 4.7716 18.3905 4.87174L32.9817 18.8133C33.1967 19.0194 33.4846 19.1319 33.7823 19.1261C34.0801 19.1203 34.3633 18.9967 34.5701 18.7824C35.0018 18.3352 34.966 17.5969 34.5167 17.1673Z" fill="#B3B3B3"/>
</svg>
