<svg width="36" height="36" viewBox="0 0 36 36" fill="none" xmlns="http://www.w3.org/2000/svg">
<path d="M18.3919 7.1199C18.2872 7.01976 18.1479 6.96387 18.003 6.96387C17.8582 6.96387 17.7189 7.01976 17.6142 7.1199L4.66968 19.4858C4.6147 19.5383 4.57097 19.6015 4.54112 19.6715C4.51127 19.7415 4.49592 19.8168 4.49601 19.8929L4.4939 31.4986C4.4939 32.0954 4.73095 32.6677 5.15291 33.0896C5.57486 33.5116 6.14716 33.7486 6.7439 33.7486H13.5009C13.7993 33.7486 14.0854 33.6301 14.2964 33.4191C14.5074 33.2082 14.6259 32.922 14.6259 32.6236V23.0611C14.6259 22.912 14.6852 22.7689 14.7907 22.6634C14.8962 22.5579 15.0392 22.4986 15.1884 22.4986H20.8134C20.9626 22.4986 21.1057 22.5579 21.2112 22.6634C21.3167 22.7689 21.3759 22.912 21.3759 23.0611V32.6236C21.3759 32.922 21.4945 33.2082 21.7054 33.4191C21.9164 33.6301 22.2026 33.7486 22.5009 33.7486H29.2551C29.8519 33.7486 30.4242 33.5116 30.8461 33.0896C31.2681 32.6677 31.5051 32.0954 31.5051 31.4986V19.8929C31.5052 19.8168 31.4899 19.7415 31.46 19.6715C31.4302 19.6015 31.3864 19.5383 31.3315 19.4858L18.3919 7.1199Z" fill="#212429"/>
<path d="M34.5169 17.1673L29.2575 12.1357V4.50049C29.2575 4.20212 29.139 3.91597 28.928 3.70499C28.717 3.49401 28.4309 3.37549 28.1325 3.37549H24.7575C24.4592 3.37549 24.173 3.49401 23.962 3.70499C23.751 3.91597 23.6325 4.20212 23.6325 4.50049V6.75049L19.56 2.85658C19.1789 2.47127 18.6122 2.25049 17.9998 2.25049C17.3895 2.25049 16.8242 2.47127 16.4431 2.85729L1.4876 17.1659C1.05025 17.5878 0.995407 18.2817 1.39338 18.7388C1.49331 18.8541 1.61568 18.948 1.75302 19.0145C1.89037 19.0811 2.03983 19.119 2.1923 19.126C2.34476 19.133 2.49706 19.1088 2.63991 19.0551C2.78276 19.0013 2.91317 18.9191 3.02322 18.8133L17.6131 4.87174C17.7178 4.7716 17.857 4.71571 18.0019 4.71571C18.1468 4.71571 18.286 4.7716 18.3907 4.87174L32.982 18.8133C33.1969 19.0194 33.4848 19.1319 33.7826 19.1261C34.0803 19.1203 34.3636 18.9967 34.5703 18.7824C35.0021 18.3352 34.9662 17.5969 34.5169 17.1673Z" fill="#212429"/>
</svg>
