<svg width="40" height="40" viewBox="0 0 40 40" fill="none" xmlns="http://www.w3.org/2000/svg">
<path d="M36.4035 9.35724L30.6457 3.59943C30.2983 3.25009 29.8851 2.97313 29.43 2.78458C28.9748 2.59603 28.4868 2.49964 27.9941 2.50099H7.50195C6.17587 2.50099 4.9041 3.02777 3.96642 3.96546C3.02874 4.90314 2.50195 6.17491 2.50195 7.50099V32.501C2.50195 33.8271 3.02874 35.0988 3.96642 36.0365C4.9041 36.9742 6.17587 37.501 7.50195 37.501H32.5019C33.828 37.501 35.0998 36.9742 36.0375 36.0365C36.9752 35.0988 37.5019 33.8271 37.5019 32.501V12.0088C37.5033 11.5161 37.4069 11.0281 37.2184 10.573C37.0298 10.1178 36.7528 9.70462 36.4035 9.35724ZM9.37695 8.75099H23.1269C23.2927 8.75099 23.4517 8.81684 23.5689 8.93405C23.6861 9.05126 23.7519 9.21023 23.7519 9.37599V13.126C23.7519 13.2917 23.6861 13.4507 23.5689 13.5679C23.4517 13.6851 23.2927 13.751 23.1269 13.751H9.37695C9.21119 13.751 9.05222 13.6851 8.93501 13.5679C8.8178 13.4507 8.75195 13.2917 8.75195 13.126V9.37599C8.75195 9.21023 8.8178 9.05126 8.93501 8.93405C9.05222 8.81684 9.21119 8.75099 9.37695 8.75099ZM20.2949 33.744C19.0352 33.8031 17.787 33.4798 16.7145 32.8165C15.6419 32.1531 14.795 31.1809 14.2852 30.0274C13.7754 28.8739 13.6265 27.5932 13.858 26.3535C14.0895 25.1138 14.6906 23.9732 15.5824 23.0814C16.4741 22.1897 17.6148 21.5886 18.8545 21.357C20.0941 21.1255 21.3749 21.2745 22.5284 21.7843C23.6818 22.2941 24.6541 23.1409 25.3174 24.2135C25.9807 25.2861 26.3041 26.5342 26.2449 27.794C26.1709 29.3481 25.5202 30.8189 24.42 31.9191C23.3198 33.0193 21.8491 33.6699 20.2949 33.744Z" fill="#B3B3B3"/>
<path d="M20.004 31.2575C22.0766 31.2575 23.7567 29.5773 23.7567 27.5047C23.7567 25.4321 22.0766 23.752 20.004 23.752C17.9314 23.752 16.2512 25.4321 16.2512 27.5047C16.2512 29.5773 17.9314 31.2575 20.004 31.2575Z" fill="#B3B3B3"/>
</svg>
