<svg width="40" height="40" viewBox="0 0 40 40" fill="none" xmlns="http://www.w3.org/2000/svg">
<path d="M36.4033 9.35724L30.6455 3.59943C30.2981 3.25009 29.8849 2.97313 29.4297 2.78458C28.9746 2.59603 28.4865 2.49964 27.9939 2.50099H7.50171C6.17563 2.50099 4.90386 3.02777 3.96617 3.96546C3.02849 4.90314 2.50171 6.17491 2.50171 7.50099V32.501C2.50171 33.8271 3.02849 35.0988 3.96617 36.0365C4.90386 36.9742 6.17563 37.501 7.50171 37.501H32.5017C33.8278 37.501 35.0996 36.9742 36.0372 36.0365C36.9749 35.0988 37.5017 33.8271 37.5017 32.501V12.0088C37.503 11.5161 37.4067 11.0281 37.2181 10.573C37.0296 10.1178 36.7526 9.70462 36.4033 9.35724ZM9.37671 8.75099H23.1267C23.2925 8.75099 23.4514 8.81684 23.5686 8.93405C23.6859 9.05126 23.7517 9.21023 23.7517 9.37599V13.126C23.7517 13.2917 23.6859 13.4507 23.5686 13.5679C23.4514 13.6851 23.2925 13.751 23.1267 13.751H9.37671C9.21095 13.751 9.05198 13.6851 8.93477 13.5679C8.81756 13.4507 8.75171 13.2917 8.75171 13.126V9.37599C8.75171 9.21023 8.81756 9.05126 8.93477 8.93405C9.05198 8.81684 9.21095 8.75099 9.37671 8.75099ZM20.2947 33.744C19.0349 33.8031 17.7868 33.4798 16.7142 32.8165C15.6416 32.1531 14.7948 31.1809 14.285 30.0274C13.7752 28.8739 13.6263 27.5932 13.8578 26.3535C14.0893 25.1138 14.6904 23.9732 15.5821 23.0814C16.4739 22.1897 17.6145 21.5886 18.8542 21.357C20.0939 21.1255 21.3746 21.2745 22.5281 21.7843C23.6816 22.2941 24.6539 23.1409 25.3172 24.2135C25.9805 25.2861 26.3038 26.5342 26.2447 27.794C26.1706 29.3481 25.52 30.8189 24.4198 31.9191C23.3196 33.0193 21.8488 33.6699 20.2947 33.744Z" fill="#212429"/>
<path d="M20.0042 31.2575C22.0768 31.2575 23.757 29.5773 23.757 27.5047C23.757 25.4321 22.0768 23.752 20.0042 23.752C17.9316 23.752 16.2515 25.4321 16.2515 27.5047C16.2515 29.5773 17.9316 31.2575 20.0042 31.2575Z" fill="#212429"/>
</svg>
