<svg width="36" height="36" viewBox="0 0 36 36" fill="none" xmlns="http://www.w3.org/2000/svg">
<path d="M30.9319 7.875H29.2571C29.2554 7.875 29.2538 7.87567 29.2526 7.87685C29.2514 7.87804 29.2507 7.87965 29.2507 7.88133V29.25C29.2507 29.8467 29.4878 30.419 29.9097 30.841C30.3317 31.263 30.904 31.5 31.5007 31.5C32.0975 31.5 32.6698 31.263 33.0917 30.841C33.5137 30.419 33.7507 29.8467 33.7507 29.25V10.6938C33.7507 9.94623 33.4538 9.22925 32.9251 8.70062C32.3965 8.17198 31.6795 7.875 30.9319 7.875Z" fill="#B3B3B3"/>
<path d="M27.0029 29.2505V5.06299C27.0029 4.69365 26.9302 4.32792 26.7888 3.98669C26.6475 3.64546 26.4403 3.33542 26.1792 3.07425C25.918 2.81309 25.608 2.60592 25.2667 2.46458C24.9255 2.32324 24.5598 2.25049 24.1904 2.25049H5.06543C4.31951 2.25049 3.60414 2.5468 3.07669 3.07425C2.54925 3.6017 2.25293 4.31707 2.25293 5.06299V29.813C2.25293 30.8573 2.66777 31.8588 3.4062 32.5972C4.14462 33.3356 5.14614 33.7505 6.19043 33.7505H30.2971C30.3077 33.7506 30.3183 33.7486 30.3281 33.7445C30.338 33.7405 30.3469 33.7345 30.3545 33.727C30.362 33.7195 30.3679 33.7105 30.372 33.7007C30.376 33.6908 30.378 33.6803 30.3779 33.6696C30.3779 33.6519 30.372 33.6348 30.3612 33.6208C30.3504 33.6068 30.3353 33.5968 30.3182 33.5923C29.3665 33.3312 28.5268 32.7651 27.9279 31.9808C27.3291 31.1965 27.0041 30.2373 27.0029 29.2505ZM6.75293 9.00049C6.75293 8.70212 6.87146 8.41597 7.08244 8.20499C7.29341 7.99401 7.57956 7.87549 7.87793 7.87549H12.3779C12.6763 7.87549 12.9625 7.99401 13.1734 8.20499C13.3844 8.41597 13.5029 8.70212 13.5029 9.00049V13.5005C13.5029 13.7989 13.3844 14.085 13.1734 14.296C12.9625 14.507 12.6763 14.6255 12.3779 14.6255H7.87793C7.57956 14.6255 7.29341 14.507 7.08244 14.296C6.87146 14.085 6.75293 13.7989 6.75293 13.5005V9.00049ZM21.3779 28.1255H7.90957C7.30418 28.1255 6.78457 27.66 6.75434 27.0546C6.74701 26.9025 6.77064 26.7505 6.8238 26.6078C6.87695 26.4651 6.95853 26.3347 7.06359 26.2244C7.16864 26.1142 7.29499 26.0264 7.43497 25.9664C7.57495 25.9064 7.72564 25.8755 7.87793 25.8755H21.3463C21.9517 25.8755 22.4713 26.341 22.5015 26.9463C22.5089 27.0985 22.4852 27.2505 22.4321 27.3932C22.3789 27.5359 22.2973 27.6663 22.1923 27.7766C22.0872 27.8868 21.9609 27.9746 21.8209 28.0346C21.6809 28.0945 21.5302 28.1255 21.3779 28.1255ZM21.3779 23.6255H7.90957C7.30418 23.6255 6.78457 23.16 6.75434 22.5546C6.74701 22.4025 6.77064 22.2505 6.8238 22.1078C6.87695 21.9651 6.95853 21.8347 7.06359 21.7244C7.16864 21.6142 7.29499 21.5264 7.43497 21.4664C7.57495 21.4064 7.72564 21.3755 7.87793 21.3755H21.3463C21.9517 21.3755 22.4713 21.841 22.5015 22.4463C22.5089 22.5985 22.4852 22.7505 22.4321 22.8932C22.3789 23.0359 22.2973 23.1663 22.1923 23.2766C22.0872 23.3868 21.9609 23.4746 21.8209 23.5346C21.6809 23.5945 21.5302 23.6255 21.3779 23.6255ZM21.3779 19.1255H7.90957C7.30418 19.1255 6.78457 18.66 6.75434 18.0546C6.74701 17.9025 6.77064 17.7505 6.8238 17.6078C6.87695 17.4651 6.95853 17.3347 7.06359 17.2244C7.16864 17.1142 7.29499 17.0264 7.43497 16.9664C7.57495 16.9064 7.72564 16.8755 7.87793 16.8755H21.3463C21.9517 16.8755 22.4713 17.341 22.5015 17.9463C22.5089 18.0985 22.4852 18.2505 22.4321 18.3932C22.3789 18.5359 22.2973 18.6663 22.1923 18.7766C22.0872 18.8868 21.9609 18.9746 21.8209 19.0346C21.6809 19.0945 21.5302 19.1255 21.3779 19.1255ZM21.3779 14.6255H16.9096C16.3042 14.6255 15.7846 14.16 15.7543 13.5546C15.747 13.4025 15.7706 13.2505 15.8238 13.1078C15.877 12.9651 15.9585 12.8347 16.0636 12.7244C16.1686 12.6142 16.295 12.5264 16.435 12.4664C16.5749 12.4064 16.7256 12.3755 16.8779 12.3755H21.3463C21.9517 12.3755 22.4713 12.841 22.5015 13.4463C22.5089 13.5985 22.4852 13.7505 22.4321 13.8932C22.3789 14.0359 22.2973 14.1663 22.1923 14.2766C22.0872 14.3868 21.9609 14.4746 21.8209 14.5346C21.6809 14.5945 21.5302 14.6255 21.3779 14.6255ZM21.3779 10.1255H16.9096C16.3042 10.1255 15.7846 9.66002 15.7543 9.05463C15.747 8.90252 15.7706 8.7505 15.8238 8.60779C15.877 8.46509 15.9585 8.33466 16.0636 8.22441C16.1686 8.11416 16.295 8.02639 16.435 7.96641C16.5749 7.90643 16.7256 7.8755 16.8779 7.87549H21.3463C21.9517 7.87549 22.4713 8.34096 22.5015 8.94635C22.5089 9.09846 22.4852 9.25047 22.4321 9.39318C22.3789 9.53589 22.2973 9.66632 22.1923 9.77657C22.0872 9.88682 21.9609 9.97459 21.8209 10.0346C21.6809 10.0945 21.5302 10.1255 21.3779 10.1255Z" fill="#B3B3B3"/>
</svg>
