<svg width="40" height="40" viewBox="0 0 40 40" fill="none" xmlns="http://www.w3.org/2000/svg">
<path d="M37.473 20.9937L34.973 9.1335C34.4901 6.546 32.6308 5.00146 29.9995 5.00146H9.99952C8.68702 5.00146 7.57764 5.36787 6.71045 6.09053C5.84327 6.81318 5.2753 7.8335 5.02452 9.12881L2.52452 20.9937C2.50763 21.0785 2.49925 21.1649 2.49952 21.2515V30.0015C2.49952 31.3275 3.0263 32.5993 3.96398 33.537C4.90167 34.4747 6.17343 35.0015 7.49952 35.0015H32.4995C33.8256 35.0015 35.0974 34.4747 36.035 33.537C36.9727 32.5993 37.4995 31.3275 37.4995 30.0015V21.2515C37.4993 21.1649 37.4904 21.0785 37.473 20.9937ZM7.47296 9.63428C7.47296 9.62646 7.47296 9.61943 7.47296 9.6124C7.7503 8.17256 8.55186 7.50303 9.99561 7.50303H29.9995C31.4534 7.50303 32.255 8.171 32.5206 9.60537C32.5206 9.61553 32.5245 9.62568 32.5261 9.63584L34.63 19.6265C34.6395 19.672 34.6388 19.7191 34.6278 19.7643C34.6168 19.8094 34.5959 19.8516 34.5666 19.8877C34.5372 19.9238 34.5002 19.9529 34.4582 19.9728C34.4162 19.9928 34.3702 20.0031 34.3237 20.003H24.9995C24.6699 20.0014 24.3531 20.1306 24.1188 20.3623C23.8844 20.5941 23.7516 20.9094 23.7495 21.239C23.7495 22.2335 23.3544 23.1874 22.6512 23.8906C21.9479 24.5939 20.9941 24.989 19.9995 24.989C19.005 24.989 18.0511 24.5939 17.3479 23.8906C16.6446 23.1874 16.2495 22.2335 16.2495 21.239C16.2487 21.0756 16.2157 20.9141 16.1525 20.7635C16.0892 20.6129 15.9969 20.4762 15.8808 20.3613C15.7647 20.2464 15.6272 20.1555 15.476 20.0937C15.3247 20.032 15.1628 20.0006 14.9995 20.0015H5.6753C5.62879 20.0015 5.58286 19.9912 5.54085 19.9712C5.49884 19.9513 5.46181 19.9222 5.43247 19.8861C5.40312 19.8501 5.3822 19.8079 5.37123 19.7627C5.36026 19.7175 5.35951 19.6704 5.36905 19.6249L7.47296 9.63428Z" fill="#B3B3B3"/>
<path d="M28.7517 12.5015H11.2517C10.9202 12.5015 10.6022 12.3698 10.3678 12.1353C10.1334 11.9009 10.0017 11.583 10.0017 11.2515C10.0017 10.9199 10.1334 10.602 10.3678 10.3676C10.6022 10.1332 10.9202 10.0015 11.2517 10.0015H28.7517C29.0832 10.0015 29.4012 10.1332 29.6356 10.3676C29.87 10.602 30.0017 10.9199 30.0017 11.2515C30.0017 11.583 29.87 11.9009 29.6356 12.1353C29.4012 12.3698 29.0832 12.5015 28.7517 12.5015Z" fill="#B3B3B3"/>
<path d="M30.0024 17.5015H10.0024C9.67092 17.5015 9.35298 17.3698 9.11856 17.1353C8.88414 16.9009 8.75244 16.583 8.75244 16.2515C8.75244 15.9199 8.88414 15.602 9.11856 15.3676C9.35298 15.1332 9.67092 15.0015 10.0024 15.0015H30.0024C30.334 15.0015 30.6519 15.1332 30.8863 15.3676C31.1207 15.602 31.2524 15.9199 31.2524 16.2515C31.2524 16.583 31.1207 16.9009 30.8863 17.1353C30.6519 17.3698 30.334 17.5015 30.0024 17.5015Z" fill="#B3B3B3"/>
</svg>
