<svg width="41" height="41" viewBox="0 0 41 41" fill="none" xmlns="http://www.w3.org/2000/svg">
<path d="M29.4695 2.56201H11.532C10.1732 2.5635 8.8705 3.10393 7.9097 4.06473C6.9489 5.02553 6.40847 6.32823 6.40698 7.68701V33.312C6.40847 34.6708 6.9489 35.9735 7.9097 36.9343C8.8705 37.8951 10.1732 38.4355 11.532 38.437H29.4695C30.8283 38.4355 32.131 37.8951 33.0918 36.9343C34.0526 35.9735 34.593 34.6708 34.5945 33.312V7.68701C34.593 6.32823 34.0526 5.02553 33.0918 4.06473C32.131 3.10393 30.8283 2.5635 29.4695 2.56201ZM20.5007 24.3433H14.0945C13.7547 24.3433 13.4288 24.2083 13.1885 23.968C12.9482 23.7277 12.8132 23.4018 12.8132 23.062C12.8132 22.7222 12.9482 22.3963 13.1885 22.156C13.4288 21.9157 13.7547 21.7808 14.0945 21.7808H20.5007C20.8405 21.7808 21.1664 21.9157 21.4067 22.156C21.647 22.3963 21.782 22.7222 21.782 23.062C21.782 23.4018 21.647 23.7277 21.4067 23.968C21.1664 24.2083 20.8405 24.3433 20.5007 24.3433ZM26.907 17.937H14.0945C13.7547 17.937 13.4288 17.802 13.1885 17.5617C12.9482 17.3215 12.8132 16.9956 12.8132 16.6558C12.8132 16.316 12.9482 15.9901 13.1885 15.7498C13.4288 15.5095 13.7547 15.3745 14.0945 15.3745H26.907C27.2468 15.3745 27.5727 15.5095 27.813 15.7498C28.0533 15.9901 28.1882 16.316 28.1882 16.6558C28.1882 16.9956 28.0533 17.3215 27.813 17.5617C27.5727 17.802 27.2468 17.937 26.907 17.937ZM26.907 11.5308H14.0945C13.7547 11.5308 13.4288 11.3958 13.1885 11.1555C12.9482 10.9152 12.8132 10.5893 12.8132 10.2495C12.8132 9.9097 12.9482 9.58381 13.1885 9.34353C13.4288 9.10325 13.7547 8.96826 14.0945 8.96826H26.907C27.2468 8.96826 27.5727 9.10325 27.813 9.34353C28.0533 9.58381 28.1882 9.9097 28.1882 10.2495C28.1882 10.5893 28.0533 10.9152 27.813 11.1555C27.5727 11.3958 27.2468 11.5308 26.907 11.5308Z" fill="#212429"/>
</svg>
