<svg width="46" height="46" viewBox="0 0 46 46" fill="none" xmlns="http://www.w3.org/2000/svg">
<path d="M22.8047 4.27539C12.5877 4.27539 4.27539 12.5877 4.27539 22.8047C4.27539 33.0216 12.5877 41.334 22.8047 41.334C33.0216 41.334 41.334 33.0216 41.334 22.8047C41.334 12.5877 33.0216 4.27539 22.8047 4.27539ZM18.3309 14.6821C19.4596 13.4857 21.048 12.8274 22.8047 12.8274C24.5614 12.8274 26.1355 13.4902 27.2687 14.6928C28.4169 15.9114 28.9755 17.5488 28.8436 19.3091C28.58 22.8047 25.8718 25.6554 22.8047 25.6554C19.7376 25.6554 17.0241 22.8047 16.7657 19.3082C16.6348 17.5336 17.1925 15.8909 18.3309 14.6821ZM22.8047 38.4833C20.7117 38.4847 18.6396 38.0658 16.7115 37.2514C14.7834 36.437 13.0385 35.2437 11.5802 33.7423C12.4154 32.5513 13.4796 31.5386 14.7106 30.7634C16.9813 29.3078 19.8551 28.506 22.8047 28.506C25.7542 28.506 28.6281 29.3078 30.8961 30.7634C32.1281 31.5382 33.1933 32.5509 34.0292 33.7423C32.571 35.2439 30.8261 36.4373 28.898 37.2517C26.9698 38.0661 24.8978 38.4849 22.8047 38.4833Z" fill="#D3D3D3"/>
</svg>
