<svg width="46" height="46" viewBox="0 0 46 46" fill="none" xmlns="http://www.w3.org/2000/svg">
<path d="M42.7291 23.9385L39.8784 10.4147C39.3279 7.4643 37.2077 5.70312 34.2074 5.70312H11.4021C9.90549 5.70312 8.64051 6.12093 7.65169 6.94494C6.66286 7.76896 6.01523 8.93239 5.72927 10.4094L2.87861 23.9385C2.85935 24.0352 2.8498 24.1337 2.8501 24.2324V34.2097C2.8501 35.7218 3.45078 37.172 4.51998 38.2412C5.58919 39.3104 7.03934 39.9111 8.55143 39.9111H37.058C38.5701 39.9111 40.0203 39.3104 41.0895 38.2412C42.1587 37.172 42.7594 35.7218 42.7594 34.2097V24.2324C42.7591 24.1337 42.7489 24.0352 42.7291 23.9385ZM8.52114 10.9858C8.52114 10.9768 8.52114 10.9688 8.52114 10.9608C8.83738 9.31901 9.75138 8.55557 11.3976 8.55557H34.2074C35.8652 8.55557 36.7792 9.31723 37.0821 10.9528C37.0821 10.9644 37.0865 10.976 37.0883 10.9875L39.4873 22.3795C39.4982 22.4314 39.4974 22.4851 39.4848 22.5366C39.4723 22.5881 39.4485 22.6362 39.415 22.6774C39.3816 22.7185 39.3393 22.7517 39.2914 22.7744C39.2435 22.7972 39.1912 22.8089 39.1381 22.8089H28.5061C28.1302 22.807 27.769 22.9543 27.5018 23.2186C27.2345 23.4828 27.0831 23.8423 27.0807 24.2182C27.0807 25.3522 26.6302 26.4398 25.8283 27.2418C25.0264 28.0437 23.9388 28.4942 22.8047 28.4942C21.6707 28.4942 20.5831 28.0437 19.7811 27.2418C18.9792 26.4398 18.5287 25.3522 18.5287 24.2182C18.5278 24.0319 18.4902 23.8477 18.4181 23.676C18.3459 23.5043 18.2407 23.3485 18.1083 23.2174C17.976 23.0864 17.8191 22.9827 17.6467 22.9123C17.4743 22.8419 17.2896 22.8062 17.1034 22.8071H6.47133C6.4183 22.8072 6.36593 22.7954 6.31803 22.7726C6.27012 22.7499 6.2279 22.7167 6.19444 22.6756C6.16098 22.6345 6.13713 22.5864 6.12462 22.5348C6.11211 22.4833 6.11126 22.4296 6.12213 22.3777L8.52114 10.9858Z" fill="#D3D3D3"/>
<path d="M32.7843 14.2559H12.8296C12.4516 14.2559 12.0891 14.1058 11.8218 13.8385C11.5545 13.5712 11.4043 13.2086 11.4043 12.8306C11.4043 12.4526 11.5545 12.09 11.8218 11.8227C12.0891 11.5554 12.4516 11.4053 12.8296 11.4053H32.7843C33.1623 11.4053 33.5248 11.5554 33.7921 11.8227C34.0594 12.09 34.2096 12.4526 34.2096 12.8306C34.2096 13.2086 34.0594 13.5712 33.7921 13.8385C33.5248 14.1058 33.1623 14.2559 32.7843 14.2559Z" fill="#D3D3D3"/>
<path d="M34.2106 19.9561H11.4053C11.0273 19.9561 10.6648 19.806 10.3975 19.5387C10.1301 19.2714 9.97998 18.9088 9.97998 18.5308C9.97998 18.1528 10.1301 17.7902 10.3975 17.5229C10.6648 17.2556 11.0273 17.1055 11.4053 17.1055H34.2106C34.5886 17.1055 34.9512 17.2556 35.2185 17.5229C35.4858 17.7902 35.6359 18.1528 35.6359 18.5308C35.6359 18.9088 35.4858 19.2714 35.2185 19.5387C34.9512 19.806 34.5886 19.9561 34.2106 19.9561Z" fill="#D3D3D3"/>
</svg>
