<svg width="40" height="40" viewBox="0 0 40 40" fill="none" xmlns="http://www.w3.org/2000/svg">
<path d="M24.374 7.31348H6.70131C5.89319 7.31348 5.11817 7.6345 4.54675 8.20592C3.97532 8.77735 3.6543 9.55237 3.6543 10.3605V28.6425C3.6543 29.4507 3.97532 30.2257 4.54675 30.7971C5.11817 31.3685 5.89319 31.6895 6.70131 31.6895H32.1994C33.0076 31.6895 33.7826 31.3685 34.354 30.7971C34.9254 30.2257 35.2464 29.4507 35.2464 28.6425V18.2065" stroke="#D3D3D3" stroke-width="1.95" stroke-linecap="round" stroke-linejoin="round"/>
<path d="M8.52979 12.1875L19.499 20.7191L26.1263 15.7167" stroke="#D3D3D3" stroke-width="1.95" stroke-linecap="round" stroke-linejoin="round"/>
<path d="M32.9072 13.4131C34.926 13.4131 36.5625 11.7766 36.5625 9.75783C36.5625 7.73907 34.926 6.10254 32.9072 6.10254C30.8885 6.10254 29.252 7.73907 29.252 9.75783C29.252 11.7766 30.8885 13.4131 32.9072 13.4131Z" fill="#D3D3D3"/>
<path d="M32.9068 14.6251C31.9432 14.6251 31.0012 14.3393 30.2 13.804C29.3988 13.2686 28.7743 12.5077 28.4055 11.6174C28.0368 10.7272 27.9403 9.74756 28.1283 8.80246C28.3163 7.85737 28.7803 6.98924 29.4617 6.30787C30.1431 5.62649 31.0112 5.16247 31.9563 4.97448C32.9014 4.78649 33.881 4.88297 34.7712 5.25173C35.6615 5.62049 36.4224 6.24496 36.9578 7.04617C37.4931 7.84738 37.7789 8.78935 37.7789 9.75296C37.7779 11.0448 37.2642 12.2835 36.3508 13.1969C35.4373 14.1104 34.1986 14.6241 32.9068 14.6251ZM32.9068 7.31882C32.4244 7.31806 31.9527 7.46041 31.5513 7.72783C31.1499 7.99526 30.8368 8.37575 30.6517 8.82116C30.4666 9.26658 30.4177 9.75689 30.5114 10.2301C30.605 10.7032 30.8369 11.138 31.1777 11.4793C31.5185 11.8207 31.9529 12.0532 32.4259 12.1476C32.899 12.242 33.3893 12.1939 33.835 12.0095C34.2807 11.8251 34.6617 11.5126 34.9298 11.1116C35.1978 10.7106 35.3409 10.2391 35.3409 9.75677C35.3409 9.11085 35.0846 8.49132 34.6282 8.03422C34.1718 7.57713 33.5527 7.31983 32.9068 7.31882Z" fill="#D3D3D3"/>
</svg>
