<svg width="22" height="22" viewBox="0 0 22 22" fill="none" xmlns="http://www.w3.org/2000/svg">
<path d="M20.0381 9.72333C19.4047 9.56227 18.8844 9.11184 18.6344 8.50804L18.2224 7.5133C17.9914 6.95533 18.0912 6.31504 18.4811 5.85387C19.0229 5.21313 18.9832 4.26412 18.3899 3.67079L18.329 3.60983C17.7365 3.01742 16.7881 2.9803 16.1512 3.52458C15.6934 3.91586 15.055 4.01789 14.498 3.78882L13.4419 3.35449C12.8373 3.10586 12.3843 2.58807 12.2182 1.9558L12.0778 1.42132C11.9198 0.819763 11.376 0.400391 10.7541 0.400391C10.1323 0.400391 9.58871 0.819461 9.43047 1.42073L9.28243 1.98327C9.11477 2.62036 8.66088 3.14353 8.05384 3.39943L7.07026 3.81404C6.51432 4.04838 5.87318 3.94228 5.42239 3.54132C4.80313 2.99054 3.86185 3.01806 3.27583 3.60408L3.21532 3.66458C2.61542 4.26449 2.56985 5.22544 3.10482 5.88391C3.48833 6.35594 3.58675 7.00246 3.35761 7.56583L2.95316 8.56022C2.70772 9.16365 2.18467 9.61041 1.55028 9.75847L1.07144 9.87022C0.443636 10.0167 -0.000488281 10.5765 -0.000488281 11.2211C-0.000488281 11.8466 0.418029 12.3946 1.02138 12.5594L1.58369 12.7129C2.2207 12.8868 2.7425 13.3437 2.999 13.9521L3.41344 14.9353C3.64743 15.4904 3.54111 16.1306 3.14026 16.5802C2.58975 17.1978 2.61669 18.1376 3.20168 18.7226L3.2635 18.7844C3.86329 19.3842 4.8246 19.4288 5.48213 18.8929C5.95571 18.507 6.60588 18.4087 7.17086 18.6411L8.10232 19.0243C8.70993 19.2743 9.16315 19.7974 9.32402 20.4344L9.45497 20.9529C9.61053 21.5688 10.1646 22.0004 10.7999 22.0004C11.4348 22.0004 11.9887 21.5693 12.1446 20.9538L12.2765 20.4331C12.4375 19.7972 12.8894 19.2748 13.4954 19.0238L14.5503 18.587C15.0757 18.3694 15.7594 18.5162 16.1914 18.8861C16.8512 19.451 17.7659 19.354 18.3801 18.7398C18.9758 18.1441 19.0202 17.1858 18.4754 16.5432C18.0832 16.0806 17.9826 15.4375 18.2146 14.8771L18.6235 13.8897C18.8748 13.2829 19.3961 12.829 20.0318 12.6636L20.5691 12.5238C21.1759 12.366 21.5994 11.8182 21.5995 11.1912C21.5995 10.5613 21.1722 10.0117 20.5617 9.8565L20.0381 9.72333Z" fill="#919191"/>
<path d="M10.8001 14.4409C12.5895 14.4409 14.0401 12.9904 14.0401 11.2009C14.0401 9.41149 12.5895 7.96094 10.8001 7.96094C9.01061 7.96094 7.56006 9.41149 7.56006 11.2009C7.56006 12.9904 9.01061 14.4409 10.8001 14.4409Z" fill="white"/>
</svg>
