<svg width="22" height="22" viewBox="0 0 22 22" fill="none" xmlns="http://www.w3.org/2000/svg">
<path d="M11.2087 14.9812C11.3934 14.9812 11.5438 14.8327 11.5461 14.648L11.6367 7.62978C11.6391 7.4417 11.4873 7.28793 11.2992 7.28793H10.6074C10.4194 7.28793 10.2677 7.44151 10.2699 7.62947L10.354 14.6477C10.3562 14.8325 10.5066 14.9812 10.6915 14.9812H11.2087Z" fill="#F2F3F5"/>
<path d="M10.4076 15.7524C10.28 15.8997 10.2162 16.0851 10.2162 16.3059C10.2162 16.5268 10.28 16.7122 10.4076 16.8594C10.5399 17.0018 10.7337 17.0754 10.9889 17.0754C11.2441 17.0754 11.4379 17.0018 11.5702 16.8594C11.7025 16.7122 11.7687 16.5268 11.7687 16.3059C11.7687 16.0851 11.7025 15.8997 11.5702 15.7524C11.4379 15.6003 11.2441 15.5229 10.9889 15.5229C10.7337 15.5229 10.5399 15.6003 10.4076 15.7524Z" fill="#F2F3F5"/>
<path fill-rule="evenodd" clip-rule="evenodd" d="M12.2067 3.67107C11.7092 2.67605 10.2893 2.67605 9.79176 3.67107L3.05393 17.1467C2.60512 18.0443 3.25784 19.1005 4.26141 19.1005H17.7371C18.7406 19.1005 19.3934 18.0443 18.9445 17.1467L12.2067 3.67107ZM10.9992 4.27481L17.7371 17.7505H4.26141L10.9992 4.27481Z" fill="#F2F3F5"/>
</svg>
